HIERARCHY
ROOT Hips
{
	OFFSET -0.001795 -0.223333 0.028219
	CHANNELS 6 Xposition Yposition Zposition Zrotation Yrotation Xrotation 
	JOINT LeftUpLeg
	{
		OFFSET 0.069520 -0.091406 -0.006815
		CHANNELS 3 Zrotation Yrotation Xrotation
		JOINT LeftLeg
		{
			OFFSET 0.034277 -0.375199 -0.004496
			CHANNELS 3 Zrotation Yrotation Xrotation
			JOINT LeftFoot
			{
				OFFSET -0.013596 -0.397961 -0.043693
				CHANNELS 3 Zrotation Yrotation Xrotation
				JOINT LeftToe
				{
					OFFSET 0.026358 -0.055791 0.119288
					CHANNELS 3 Zrotation Yrotation Xrotation
					End Site
					{
						OFFSET 0.000000 0.000000 0.000000
					}
				}
			}
		}
	}
	JOINT RightUpLeg
	{
		OFFSET -0.067670 -0.090522 -0.004320
		CHANNELS 3 Zrotation Yrotation Xrotation
		JOINT RightLeg
		{
			OFFSET -0.038290 -0.382569 -0.008850
			CHANNELS 3 Zrotation Yrotation Xrotation
			JOINT RightFoot
			{
				OFFSET 0.015774 -0.398415 -0.042312
				CHANNELS 3 Zrotation Yrotation Xrotation
				JOINT RightToe
				{
					OFFSET -0.025372 -0.048144 0.123348
					CHANNELS 3 Zrotation Yrotation Xrotation
					End Site
					{
						OFFSET 0.000000 0.000000 0.000000
					}
				}
			}
		}
	}
	JOINT Spine
	{
		OFFSET -0.002533 0.108963 -0.026696
		CHANNELS 3 Zrotation Yrotation Xrotation
		JOINT Spine1
		{
			OFFSET 0.005487 0.135180 0.001092
			CHANNELS 3 Zrotation Yrotation Xrotation
			JOINT Spine2
			{
				OFFSET 0.001457 0.052922 0.025425
				CHANNELS 3 Zrotation Yrotation Xrotation
				JOINT Neck
				{
					OFFSET -0.002778 0.213870 -0.042857
					CHANNELS 3 Zrotation Yrotation Xrotation
					JOINT Head
					{
						OFFSET 0.005152 0.064970 0.051349
						CHANNELS 3 Zrotation Yrotation Xrotation
						End Site
						{
							OFFSET 0.000000 0.000000 0.000000
						}
					}
				}
				JOINT LeftShoulder
				{
					OFFSET 0.078845 0.121749 -0.034090
					CHANNELS 3 Zrotation Yrotation Xrotation
					JOINT LeftArm
					{
						OFFSET 0.090977 0.030469 -0.008868
						CHANNELS 3 Zrotation Yrotation Xrotation
						JOINT LeftForeArm
						{
							OFFSET 0.259612 -0.012772 -0.027456
							CHANNELS 3 Zrotation Yrotation Xrotation
							JOINT LeftHand
							{
								OFFSET 0.249234 0.008986 -0.001171
								CHANNELS 3 Zrotation Yrotation Xrotation
								End Site
								{
									OFFSET 0.000000 0.000000 0.000000
								}
							}
						}
					}
				}
				JOINT RightShoulder
				{
					OFFSET -0.081759 0.118833 -0.038615
					CHANNELS 3 Zrotation Yrotation Xrotation
					JOINT RightArm
					{
						OFFSET -0.096012 0.032551 -0.009143
						CHANNELS 3 Zrotation Yrotation Xrotation
						JOINT RightForeArm
						{
							OFFSET -0.253742 -0.013329 -0.021401
							CHANNELS 3 Zrotation Yrotation Xrotation
							JOINT RightHand
							{
								OFFSET -0.255298 0.007772 -0.005559
								CHANNELS 3 Zrotation Yrotation Xrotation
								End Site
								{
									OFFSET 0.000000 0.000000 0.000000
								}
							}
						}
					}
				}
			}
		}
	}
}
MOTION
Frames: 10
Frame Time: 0.050000
-0.035555 0.941388 -0.016113 -2.241197 -28.708625 4.194690 0.317767 0.471376 3.978255 2.699613 0.746884 -14.094427 1.477762 3.721245 10.920171 0.000000 0.000000 0.000000 -8.025852 1.127792 -9.746930 1.392042 -0.094186 -5.602466 0.020944 -13.328508 23.988864 0.000000 0.000000 0.000000 -1.641986 0.151448 12.878318 3.350995 -0.743434 10.370319 2.304000 2.026679 0.714275 10.986736 -5.693578 -18.643484 0.000000 0.000000 0.000000 -33.358723 -27.468859 21.791922 -33.537624 -18.988920 -0.207118 -3.077982 -54.985865 4.570561 0.000000 0.000000 0.000000 34.318519 36.257312 18.265434 31.767363 21.829326 3.832839 -34.810007 27.220790 -7.717850 0.000000 0.000000 0.000000 
-0.036644 0.940904 -0.015830 -2.279572 -29.321186 3.933459 0.092394 0.570543 4.691771 3.168761 0.804414 -14.582971 1.720649 4.111545 11.023681 0.000000 0.000000 0.000000 -7.969163 1.122828 -9.621021 1.541717 -0.087257 -5.444666 0.297810 -12.947834 23.641020 0.000000 0.000000 0.000000 -1.320498 0.097921 12.585547 3.321421 -0.714821 10.167325 2.007121 1.678716 0.708176 11.612854 -6.107649 -18.423234 0.000000 0.000000 0.000000 -34.059736 -27.299792 22.207052 -33.370338 -18.937807 -0.328998 -1.236987 -54.830715 3.602657 0.000000 0.000000 0.000000 35.025591 36.411629 18.179617 30.880021 21.494981 3.756573 -34.149725 27.863176 -7.770613 0.000000 0.000000 0.000000 
-0.036951 0.940615 -0.015727 -2.471445 -29.916480 3.927443 0.095011 0.652024 5.259205 3.410697 0.892660 -15.225469 1.935962 4.459152 11.248043 0.000000 0.000000 0.000000 -7.930764 1.144424 -9.869448 1.893368 -0.080309 -5.021316 0.553690 -12.622998 23.411351 0.000000 0.000000 0.000000 -0.957848 0.047701 12.448847 3.486021 -0.749563 10.369687 1.641578 1.095933 0.286164 12.419958 -6.542743 -18.484751 0.000000 0.000000 0.000000 -34.178565 -27.360434 22.616769 -33.736863 -19.196610 -0.307435 0.694653 -54.379339 2.603244 0.000000 0.000000 0.000000 35.593421 36.529012 17.961851 30.201830 21.291149 3.779858 -33.869473 28.830801 -8.041145 0.000000 0.000000 0.000000 
-0.036578 0.940158 -0.015804 -2.553510 -30.619539 4.053775 0.100141 0.691400 5.512869 3.371718 0.964600 -15.702412 2.217637 4.904872 11.399665 0.000000 0.000000 0.000000 -8.089430 1.183531 -10.191853 2.335012 -0.067765 -4.926177 0.851884 -12.289983 23.312738 0.000000 0.000000 0.000000 -0.434818 -0.028530 12.127212 3.326247 -0.624217 10.290127 1.707509 0.249008 0.163525 12.580580 -6.789593 -17.875724 0.000000 0.000000 0.000000 -34.328122 -27.254147 23.153423 -33.856088 -19.713254 -0.296578 2.918936 -54.385344 1.509488 0.000000 0.000000 0.000000 36.159972 36.613497 17.431159 30.073285 20.732221 3.856255 -34.012211 31.097929 -8.893312 0.000000 0.000000 0.000000 
-0.035735 0.939792 -0.015979 -2.719695 -31.468152 4.059816 0.093246 0.696741 5.509264 3.454028 0.925768 -15.401249 2.664044 5.615095 11.184752 0.000000 0.000000 0.000000 -8.111292 1.225166 -10.613500 2.667566 -0.059157 -4.421658 1.245688 -11.842683 23.147181 0.000000 0.000000 0.000000 -0.133284 -0.064932 11.957819 3.639833 -0.722937 10.452620 1.810234 -0.135276 0.081474 12.635653 -6.910975 -17.528532 0.000000 0.000000 0.000000 -34.453969 -26.840965 23.220406 -33.954256 -20.069573 -0.283804 4.015595 -53.973135 0.965199 0.000000 0.000000 0.000000 36.554307 36.206997 16.667167 30.433212 20.324825 3.974959 -33.625456 33.539138 -9.650671 0.000000 0.000000 0.000000 
-0.034911 0.939642 -0.016082 -2.907937 -32.546250 4.114305 0.169452 0.714651 5.589045 3.366923 0.909917 -15.248524 3.182268 6.447286 11.132911 0.000000 0.000000 0.000000 -8.227863 1.263683 -10.835636 3.230132 -0.034598 -4.416609 1.772352 -11.304299 23.186632 0.000000 0.000000 0.000000 0.315914 -0.112913 11.939860 3.712022 -0.680000 10.533640 2.048201 -0.491630 -0.168525 12.431229 -6.931024 -16.879983 0.000000 0.000000 0.000000 -34.358193 -26.665600 23.428179 -33.947230 -20.029851 -0.363508 5.878059 -54.130003 0.051328 0.000000 0.000000 0.000000 37.276465 36.087137 16.151726 31.744470 19.106473 4.058941 -32.222267 35.775222 -10.005327 0.000000 0.000000 0.000000 
-0.034351 0.939341 -0.016019 -2.988559 -33.104564 3.920900 0.101242 0.721013 5.594288 3.482612 0.829473 -14.684903 3.503885 6.995120 10.792926 0.000000 0.000000 0.000000 -8.215620 1.275484 -10.934441 3.365634 -0.032133 -4.020665 2.040707 -10.969316 23.020903 0.000000 0.000000 0.000000 0.483409 -0.123584 12.064194 4.143031 -0.846846 10.838011 2.123140 -0.595138 -0.457775 12.071678 -6.797198 -16.463782 0.000000 0.000000 0.000000 -33.976016 -26.512937 23.242031 -34.164859 -19.984276 -0.352198 6.608825 -54.110100 -0.294490 0.000000 0.000000 0.000000 37.696438 35.670923 15.689007 33.751723 17.908207 4.091941 -30.487093 36.960666 -9.846761 0.000000 0.000000 0.000000 
-0.034311 0.939178 -0.015843 -2.883645 -33.822613 3.554700 -0.125225 0.775268 5.900480 3.583460 0.794820 -14.437714 3.837692 7.557158 10.714330 0.000000 0.000000 0.000000 -8.368934 1.293394 -10.983298 3.562486 -0.025845 -3.589638 2.369035 -10.544909 22.797479 0.000000 0.000000 0.000000 0.506619 -0.113459 12.172813 4.452245 -0.923448 11.226503 2.200701 -0.460667 -0.914928 11.735056 -6.649738 -16.062321 0.000000 0.000000 0.000000 -33.929750 -26.511759 23.229569 -34.180587 -19.855757 -0.371144 6.988309 -53.802773 -0.482052 0.000000 0.000000 0.000000 38.298050 35.190364 15.288162 36.062805 16.323741 4.008108 -26.876718 37.004572 -8.647357 0.000000 0.000000 0.000000 
-0.034454 0.938636 -0.015817 -2.794451 -34.012090 3.270006 -0.208252 0.781595 5.918408 3.581536 0.725489 -13.950147 3.965960 7.813488 10.331579 0.000000 0.000000 0.000000 -8.276675 1.277644 -10.832251 3.313724 -0.030474 -3.457965 2.461236 -10.357102 22.543176 0.000000 0.000000 0.000000 0.501012 -0.109520 12.167659 4.857938 -1.125467 11.309195 2.369139 -0.151566 -1.000650 11.291895 -6.442130 -15.744585 0.000000 0.000000 0.000000 -34.166044 -26.537448 23.250308 -34.015836 -19.316499 -0.516088 7.497683 -54.239534 -0.748538 0.000000 0.000000 0.000000 39.023379 34.959257 15.326183 38.621773 14.824154 3.823251 -23.487268 35.672224 -7.166926 0.000000 0.000000 0.000000 
-0.034525 0.938171 -0.016225 -2.525470 -34.449569 2.946552 -0.517315 0.767713 5.781845 3.667917 0.633394 -13.301890 4.222983 8.282850 10.029107 0.000000 0.000000 0.000000 -8.320854 1.287164 -10.861309 3.058033 -0.030364 -3.267146 2.663948 -10.055369 22.283944 0.000000 0.000000 0.000000 0.360895 -0.087246 12.097138 4.984878 -1.097122 11.872262 2.722969 0.268241 -1.330548 10.978895 -6.280149 -15.414089 0.000000 0.000000 0.000000 -33.756733 -26.586328 22.977304 -33.972912 -19.280835 -0.460702 7.968094 -54.535375 -0.972759 0.000000 0.000000 0.000000 39.587447 35.034985 15.674392 40.083685 14.693459 3.901605 -21.163272 33.429803 -5.904567 0.000000 0.000000 0.000000 
